HIERARCHY
ROOT Hips
{
	OFFSET 0.00000 0.00000 0.00000
	CHANNELS 6 Xposition Yposition Zposition Zrotation Yrotation Xrotation 
	JOINT LHipJoint
	{
		OFFSET 0 0 0
		CHANNELS 3 Zrotation Yrotation Xrotation
		JOINT LeftUpLeg
		{
			OFFSET 1.53139 -1.83434 0.76626
			CHANNELS 3 Zrotation Yrotation Xrotation
			JOINT LeftLeg
			{
				OFFSET 2.56112 -7.03663 0.00000
				CHANNELS 3 Zrotation Yrotation Xrotation
				JOINT LeftFoot
				{
					OFFSET 2.59983 -7.14299 0.00000
					CHANNELS 3 Zrotation Yrotation Xrotation
					JOINT LeftToeBase
					{
						OFFSET 0.13742 -0.37757 2.00054
						CHANNELS 3 Zrotation Yrotation Xrotation
						End Site
						{
							OFFSET 0.00000 -0.00000 1.02897
						}
					}
				}
			}
		}
	}
	JOINT RHipJoint
	{
		OFFSET 0 0 0
		CHANNELS 3 Zrotation Yrotation Xrotation
		JOINT RightUpLeg
		{
			OFFSET -1.40122 -1.83435 0.76627
			CHANNELS 3 Zrotation Yrotation Xrotation
			JOINT RightLeg
			{
				OFFSET -2.54052 -6.98003 0.00000
				CHANNELS 3 Zrotation Yrotation Xrotation
				JOINT RightFoot
				{
					OFFSET -2.63179 -7.23079 0.00000
					CHANNELS 3 Zrotation Yrotation Xrotation
					JOINT RightToeBase
					{
						OFFSET -0.24131 -0.66299 2.03908
						CHANNELS 3 Zrotation Yrotation Xrotation
						End Site
						{
							OFFSET -0.00000 -0.00000 1.07391
						}
					}
				}
			}
		}
	}
	JOINT LowerBack
	{
		OFFSET 0 0 0
		CHANNELS 3 Zrotation Yrotation Xrotation
		JOINT Spine
		{
			OFFSET 0.01174 2.10302 -0.29778
			CHANNELS 3 Zrotation Yrotation Xrotation
			JOINT Spine1
			{
				OFFSET 0.00772 2.13227 -0.01247
				CHANNELS 3 Zrotation Yrotation Xrotation
				JOINT Neck
				{
					OFFSET 0 0 0
					CHANNELS 3 Zrotation Yrotation Xrotation
					JOINT Neck1
					{
						OFFSET -0.09219 1.60848 0.31481
						CHANNELS 3 Zrotation Yrotation Xrotation
						JOINT Head
						{
							OFFSET 0.13974 1.65456 -0.31134
							CHANNELS 3 Zrotation Yrotation Xrotation
							End Site
							{
								OFFSET 0.04742 1.69515 -0.14578
							}
						}
					}
				}
				JOINT LeftShoulder
				{
					OFFSET 0 0 0
					CHANNELS 3 Zrotation Yrotation Xrotation
					JOINT LeftArm
					{
						OFFSET 3.24909 1.02882 -0.23993
						CHANNELS 3 Zrotation Yrotation Xrotation
						JOINT LeftForeArm
						{
							OFFSET 5.32955 -0.00000 -0.00000
							CHANNELS 3 Zrotation Yrotation Xrotation
							JOINT LeftHand
							{
								OFFSET 3.69232 -0.00000 -0.00000
								CHANNELS 3 Zrotation Yrotation Xrotation
								JOINT LeftFingerBase
								{
									OFFSET 0 0 0
									CHANNELS 3 Zrotation Yrotation Xrotation
									JOINT LeftHandIndex1
									{
										OFFSET 0.53660 -0.00000 -0.00000
										CHANNELS 3 Zrotation Yrotation Xrotation
										End Site
										{
											OFFSET 0.43262 -0.00000 -0.00000
										}
									}
								}
								JOINT LThumb
								{
									OFFSET 0 0 0
									CHANNELS 3 Zrotation Yrotation Xrotation
									End Site
									{
										OFFSET 0.43922 -0.00000 0.43922
									}
								}
							}
						}
					}
				}
				JOINT RightShoulder
				{
					OFFSET 0 0 0
					CHANNELS 3 Zrotation Yrotation Xrotation
					JOINT RightArm
					{
						OFFSET -3.21387 0.93002 -0.34594
						CHANNELS 3 Zrotation Yrotation Xrotation
						JOINT RightForeArm
						{
							OFFSET -5.23431 -0.00000 0.00000
							CHANNELS 3 Zrotation Yrotation Xrotation
							JOINT RightHand
							{
								OFFSET -3.55301 -0.00000 -0.00000
								CHANNELS 3 Zrotation Yrotation Xrotation
								JOINT RightFingerBase
								{
									OFFSET 0 0 0
									CHANNELS 3 Zrotation Yrotation Xrotation
									JOINT RightHandIndex1
									{
										OFFSET -0.77252 -0.00000 -0.00000
										CHANNELS 3 Zrotation Yrotation Xrotation
										End Site
										{
											OFFSET -0.62283 -0.00000 -0.00000
										}
									}
								}
								JOINT RThumb
								{
									OFFSET 0 0 0
									CHANNELS 3 Zrotation Yrotation Xrotation
									End Site
									{
										OFFSET -0.63234 -0.00000 0.63234
									}
								}
							}
						}
					}
				}
			}
		}
	}
}
MOTION
Frames: 7
Frame Time: .0083333
15.0057 17.8614 -10.1167 0 0 0 0 0 0 -21 0 0 0 0 0 0 0 0 0 0 0 0 0 0 21 0 0 0 0 0 0 0 0 0 0 0 0 0 0 0 0 0 0 0 0 0 0 -16 0 0 21 0 0 11 0 0 0 -8 0 0 0 0 0 0 0 0 0 0 0 0 0 0 0 0 0 0 0 0 8 0 0 0 0 0 0 0 0 0 0 0 0 0 0 0 0 0
15.0057 17.8614 -10.1167 5.4470 -80.9163 -3.6864 0.0000 0.0000 0.0000 -22.5086 -6.0930 -3.2850 1.4715 7.6656 21.7028 0.6517 -1.8945 -14.7205 0.4541 -4.3231 -11.9873 0.0000 0.0000 0.0000 24.1383 3.3198 -6.1155 -2.5205 -9.8751 28.5731 -1.2146 -0.8456 -21.1524 -0.0860 -1.8911 5.2047 0.0575 1.3706 4.4535 0.2073 1.8390 -2.2743 0.0244 0.9112 -4.8542 -5.7223 1.9656 -25.9364 5.6705 3.2052 28.2595 3.8326 1.5161 13.7094 0.0000 0.0000 0.0000 -89.0574 3.7264 24.1691 14.0980 -22.8747 -2.8661 -0.0000 -0.0000 9.5094 20.5915 24.4044 8.8237 -7.1250 0.0000 -0.0000 -9.5421 55.5839 -2.4950 0.0000 0.0000 0.0000 89.8930 -4.4503 15.7090 -14.4272 23.3421 -2.9953 0.0000 0.0000 8.4949 -16.7866 8.9205 -2.6782 7.1250 -0.0000 -0.0000 7.2743 -20.7026 4.2670
15.0071 17.8624 -10.1197 5.4363 -80.9316 -3.6442 0.0000 0.0000 0.0000 -22.4897 -6.0948 -3.3128 1.4680 7.6569 21.6766 0.6500 -1.8825 -14.7038 0.4574 -4.3384 -12.0306 0.0000 0.0000 0.0000 24.1411 3.3353 -6.1621 -2.5232 -9.8799 28.5888 -1.2233 -0.7411 -21.1874 -0.1073 -2.1121 5.8155 0.0304 1.3641 4.4490 0.2253 1.8292 -2.2953 0.0588 0.9075 -4.8749 -5.6453 1.9561 -25.8349 5.5941 3.1781 28.1988 3.7782 1.5027 13.6685 -0.0000 0.0000 0.0000 -89.0093 3.7698 24.4724 14.1449 -22.9415 -2.8844 -0.0000 -0.0000 9.1749 20.2330 24.4634 8.6783 -7.1250 0.0000 -0.0000 -9.9412 55.5711 -2.5978 -0.0000 0.0000 0.0000 89.9130 -4.4506 15.6805 -14.4386 23.3582 -2.9998 0.0000 0.0000 8.5583 -16.8495 8.9206 -2.6888 7.1250 -0.0000 -0.0000 7.2292 -20.6991 4.2407
15.0090 17.8625 -10.1218 5.9122 -80.9318 -4.1051 0.0000 0.0000 0.0000 -22.5514 -6.0225 -3.3543 1.4654 7.6504 21.6571 0.6504 -1.9859 -14.6857 0.4447 -4.2785 -11.8615 0.0000 0.0000 0.0000 24.0644 3.3531 -6.1938 -2.5284 -9.8894 28.6193 -1.2207 -0.7454 -21.1668 -0.1003 -2.0418 5.6213 -0.0706 1.3522 4.4552 0.2486 1.8078 -2.2984 0.1410 0.9005 -4.8856 -5.8003 1.9098 -25.6907 5.6834 3.1399 28.0968 3.8242 1.4845 13.5934 -0.0000 -0.0000 0.0000 -89.0043 3.7933 24.7610 14.1734 -22.9820 -2.8954 -0.0000 -0.0000 8.7871 20.0498 24.3995 8.5734 -7.1250 0.0000 -0.0000 -10.1033 55.4692 -2.6157 -0.0000 -0.0000 0.0000 89.8646 -4.4568 15.7520 -14.4455 23.3680 -3.0026 0.0000 0.0000 8.5980 -16.9132 8.8507 -2.6786 7.1250 -0.0000 -0.0000 7.1845 -20.7679 4.2028
15.0095 17.8613 -10.1222 6.5474 -80.9782 -4.7390 0.0000 0.0000 0.0000 -22.6624 -6.0063 -3.3577 1.4662 7.6522 21.6625 0.6514 -1.9726 -14.7007 0.4402 -4.2571 -11.8011 0.0000 0.0000 0.0000 23.9434 3.3447 -6.2043 -2.5288 -9.8900 28.6213 -1.2180 -0.7093 -21.1300 -0.1000 -2.0393 5.6144 -0.1585 1.3487 4.4530 0.2345 1.7968 -2.2822 0.1769 0.8977 -4.8696 -5.9728 1.8757 -25.6758 5.8283 3.1143 28.0894 3.9060 1.4758 13.5820 -0.0000 -0.0000 0.0000 -88.9419 3.7981 25.0669 14.1987 -23.0181 -2.9054 -0.0000 -0.0000 8.2729 20.7329 24.3419 8.8679 -7.1250 0.0000 -0.0000 -9.3675 55.5489 -2.4408 -0.0000 -0.0000 0.0000 89.8614 -4.4304 15.8584 -14.4552 23.3817 -3.0064 0.0000 0.0000 8.5521 -16.9618 8.8205 -2.6777 7.1250 -0.0000 -0.0000 7.1501 -20.7966 4.1777
15.0112 17.8606 -10.1235 6.1379 -80.9881 -4.3549 0.0000 0.0000 0.0000 -22.5921 -6.0344 -3.3398 1.4672 7.6549 21.6707 0.6480 -1.9184 -14.6720 0.4430 -4.2704 -11.8388 0.0000 0.0000 0.0000 24.0386 3.4626 -6.1432 -2.5288 -9.8901 28.6217 -1.2193 -0.8459 -21.1932 -0.1019 -2.0590 5.6686 -0.1137 1.3292 4.4855 0.2745 1.7756 -2.2552 0.1945 0.8865 -4.8598 -5.9342 1.8946 -25.7774 5.7252 3.1662 28.1441 3.8729 1.4863 13.6253 -0.0000 -0.0000 0.0000 -88.9316 3.7867 25.3023 14.2431 -23.0812 -2.9227 -0.0000 -0.0000 7.9509 21.3184 24.3414 9.1378 -7.1250 0.0000 -0.0000 -8.7555 55.6677 -2.3048 -0.0000 -0.0000 0.0000 89.8562 -4.4027 15.9582 -14.5020 23.4478 -3.0250 0.0000 0.0000 8.4907 -17.0030 8.7340 -2.6585 7.1250 -0.0000 -0.0000 7.1218 -20.8839 4.1468
15.0136 17.8615 -10.1266 5.7083 -80.9556 -3.9097 0.0000 0.0000 0.0000 -22.4960 -6.0282 -3.3951 1.4689 7.6591 21.6832 0.6461 -1.9488 -14.6434 0.4424 -4.2676 -11.8308 0.0000 0.0000 0.0000 24.1414 3.5567 -6.1372 -2.5280 -9.8887 28.6170 -1.2105 -1.0223 -21.1855 -0.0904 -1.9387 5.3363 -0.0995 1.3096 4.4943 0.3269 1.7526 -2.2621 0.2425 0.8755 -4.8731 -5.9441 1.8926 -25.8390 5.6719 3.1873 28.2318 3.8628 1.4837 13.6746 -0.0000 -0.0000 0.0000 -88.9863 3.7417 25.2924 14.2398 -23.0764 -2.9214 -0.0000 -0.0000 7.9284 21.3184 24.4150 9.1634 -7.1250 0.0000 -0.0000 -8.7868 55.7432 -2.3293 -0.0000 -0.0000 0.0000 89.8102 -4.4421 16.1202 -14.5483 23.5131 -3.0435 0.0000 0.0000 8.3660 -17.0919 8.7043 -2.6642 7.1250 -0.0000 -0.0000 7.0583 -20.9099 4.1051
